<svg id="button-add-to-cart" xmlns="http://www.w3.org/2000/svg" viewBox="262 2041 18 18">
  <defs>
    <style>
      .cls-1 {
        fill: #ccc2a2;
      }
    </style>
  </defs>
  <circle id="Ellipse_1" data-name="Ellipse 1" class="cls-1" cx="9" cy="9" r="9" transform="translate(262 2041)"/>
  <path id="shopping-cart" d="M1.743,8.758A1.126,1.126,0,1,0,2.87,9.884,1.128,1.128,0,0,0,1.743,8.758Zm0,1.609a.483.483,0,1,1,.483-.483A.483.483,0,0,1,1.743,10.367ZM7.214,8.758A1.126,1.126,0,1,0,8.34,9.884,1.128,1.128,0,0,0,7.214,8.758Zm0,1.609A.483.483,0,1,1,7.7,9.884.483.483,0,0,1,7.214,10.367ZM8.579,2,8.385,3.287H-.074l.72,5.172H8.313l.668-4.8.152-1.012h1.782V2H8.579ZM8.293,3.931,8.2,4.574H.754L.665,3.931ZM1.205,7.815l-.361-2.6H8.114l-.361,2.6H1.205Z" transform="translate(266.074 2043.99)"/>
</svg>
