<svg xmlns="http://www.w3.org/2000/svg" viewBox="322 2041 18 18">
  <defs>
    <style>
      .cls-1 {
        fill: #ccc2a2;
      }
    </style>
  </defs>
  <g id="button-viewmore" transform="translate(30)">
    <circle id="Ellipse_2" data-name="Ellipse 2" class="cls-1" cx="9" cy="9" r="9" transform="translate(292 2041)"/>
    <path id="move" d="M12.659,7.388,10.616,5.345a.34.34,0,0,0-.481.481L11.6,7.288H6.97V2.661L8.431,4.123a.341.341,0,0,0,.482-.481L6.87,1.6a.341.341,0,0,0-.481,0L4.346,3.641a.34.34,0,0,0,.481.481L6.289,2.661V7.288H1.662L3.124,5.826a.34.34,0,0,0-.481-.481L.6,7.388a.341.341,0,0,0,0,.481L2.642,9.913a.341.341,0,0,0,.482-.482L1.663,7.97H6.289V12.6L4.828,11.134a.34.34,0,1,0-.481.481L6.39,13.659a.342.342,0,0,0,.482,0l2.043-2.043a.34.34,0,1,0-.481-.481L6.972,12.6V7.97H11.6L10.137,9.431a.341.341,0,0,0,.482.481l2.043-2.043a.341.341,0,0,0,0-.481Z" transform="translate(294.315 2042.242)"/>
  </g>
</svg>
