<svg xmlns="http://www.w3.org/2000/svg" viewBox="352 2020 18 18">
  <defs>
    <style>
      .cls-1 {
        fill: #ccc2a2;
      }
    </style>
  </defs>
  <g id="button-viewmore" transform="translate(52 -6)">
    <circle id="Ellipse_2" data-name="Ellipse 2" class="cls-1" cx="9" cy="9" r="9" transform="translate(300 2026)"/>
    <path id="heart" d="M5.16,11.234a.272.272,0,0,1-.132-.034A15.021,15.021,0,0,1,2.534,9.382a9.655,9.655,0,0,1-1.729-2A4.774,4.774,0,0,1,0,4.852,2.855,2.855,0,0,1,2.852,2a2.744,2.744,0,0,1,1.592.562A3,3,0,0,1,5.16,3.3a3,3,0,0,1,.716-.738A2.744,2.744,0,0,1,7.469,2a2.855,2.855,0,0,1,2.852,2.852,4.779,4.779,0,0,1-.805,2.531,9.651,9.651,0,0,1-1.728,2A15.021,15.021,0,0,1,5.293,11.2a.272.272,0,0,1-.132.034ZM2.852,2.543A2.312,2.312,0,0,0,.543,4.852C.543,6.5,1.82,8,2.89,8.972a15.068,15.068,0,0,0,2.27,1.677A15.068,15.068,0,0,0,7.43,8.972C8.5,8,9.778,6.5,9.778,4.852A2.312,2.312,0,0,0,7.469,2.543,2.36,2.36,0,0,0,5.418,3.987a.271.271,0,0,1-.515,0A2.36,2.36,0,0,0,2.852,2.543Z" transform="translate(304 2028.766)"/>
  </g>
</svg>
